<svg width="284" height="156" viewBox="0 0 284 156" fill="none" xmlns="http://www.w3.org/2000/svg">
<path d="M2.08239 14.5085V13.7841L5.27841 8.72727H5.80398V9.84943H5.44886L3.03409 13.6705V13.7273H7.33807V14.5085H2.08239ZM5.50568 16V14.2884V13.951V8.72727H6.34375V16H5.50568ZM11.041 16.0994C10.506 16.0994 10.0502 15.9538 9.67383 15.6626C9.29741 15.3691 9.00977 14.9441 8.8109 14.3878C8.61204 13.8291 8.51261 13.1544 8.51261 12.3636C8.51261 11.5777 8.61204 10.9065 8.8109 10.3501C9.01213 9.79143 9.30096 9.36529 9.67738 9.07173C10.0562 8.7758 10.5107 8.62784 11.041 8.62784C11.5713 8.62784 12.0247 8.7758 12.4011 9.07173C12.7799 9.36529 13.0687 9.79143 13.2676 10.3501C13.4688 10.9065 13.5694 11.5777 13.5694 12.3636C13.5694 13.1544 13.47 13.8291 13.2711 14.3878C13.0723 14.9441 12.7846 15.3691 12.4082 15.6626C12.0318 15.9538 11.5761 16.0994 11.041 16.0994ZM11.041 15.3182C11.5713 15.3182 11.9833 15.0625 12.2768 14.5511C12.5704 14.0398 12.7172 13.3106 12.7172 12.3636C12.7172 11.7339 12.6497 11.1977 12.5147 10.755C12.3822 10.3123 12.1904 9.97491 11.9395 9.7429C11.6909 9.51089 11.3914 9.39489 11.041 9.39489C10.5154 9.39489 10.1047 9.65412 9.80877 10.1726C9.51284 10.6887 9.36488 11.419 9.36488 12.3636C9.36488 12.9934 9.43117 13.5284 9.56374 13.9688C9.69632 14.4091 9.8869 14.7441 10.1355 14.9737C10.3864 15.2034 10.6883 15.3182 11.041 15.3182Z" fill="white" fill-opacity="0.8"/>
<path d="M4.71023 45.5994C4.24148 45.5994 3.82363 45.5189 3.45668 45.358C3.09209 45.197 2.80208 44.9732 2.58665 44.6868C2.37358 44.398 2.25758 44.063 2.23864 43.6818H3.13352C3.15246 43.9162 3.23295 44.1186 3.375 44.2891C3.51705 44.4571 3.70289 44.5874 3.93253 44.6797C4.16217 44.772 4.41667 44.8182 4.69602 44.8182C5.00852 44.8182 5.28551 44.7637 5.52699 44.6548C5.76847 44.5459 5.95786 44.3944 6.09517 44.2003C6.23248 44.0062 6.30114 43.7812 6.30114 43.5256C6.30114 43.258 6.23485 43.0225 6.10227 42.8189C5.9697 42.6129 5.77557 42.4519 5.51989 42.3359C5.2642 42.2199 4.9517 42.1619 4.58239 42.1619H4V41.3807H4.58239C4.87121 41.3807 5.12453 41.3286 5.34233 41.2244C5.5625 41.1203 5.73414 40.9735 5.85724 40.7841C5.98272 40.5947 6.04545 40.3722 6.04545 40.1165C6.04545 39.8703 5.991 39.656 5.8821 39.4737C5.7732 39.2914 5.61932 39.1494 5.42045 39.0476C5.22396 38.9458 4.99195 38.8949 4.72443 38.8949C4.47348 38.8949 4.23674 38.9411 4.0142 39.0334C3.79403 39.1233 3.61411 39.2547 3.47443 39.4276C3.33475 39.598 3.259 39.804 3.24716 40.0455H2.39489C2.40909 39.6643 2.52391 39.3305 2.73935 39.044C2.95478 38.7552 3.23651 38.5303 3.58452 38.3693C3.9349 38.2083 4.3196 38.1278 4.73864 38.1278C5.18845 38.1278 5.57434 38.219 5.89631 38.4013C6.21828 38.5812 6.46567 38.8191 6.63849 39.1151C6.81132 39.411 6.89773 39.7306 6.89773 40.0739C6.89773 40.4834 6.79001 40.8326 6.57457 41.1214C6.36151 41.4103 6.0715 41.6103 5.70455 41.7216V41.7784C6.16383 41.8542 6.52249 42.0495 6.78054 42.3643C7.03859 42.6768 7.16761 43.0639 7.16761 43.5256C7.16761 43.9209 7.0599 44.276 6.84446 44.5909C6.63139 44.9034 6.3402 45.1496 5.97088 45.3295C5.60156 45.5095 5.18134 45.5994 4.71023 45.5994ZM10.9922 45.5994C10.4571 45.5994 10.0014 45.4538 9.625 45.1626C9.24858 44.8691 8.96094 44.4441 8.76207 43.8878C8.56321 43.3291 8.46378 42.6544 8.46378 41.8636C8.46378 41.0777 8.56321 40.4065 8.76207 39.8501C8.9633 39.2914 9.25213 38.8653 9.62855 38.5717C10.0073 38.2758 10.4619 38.1278 10.9922 38.1278C11.5225 38.1278 11.9759 38.2758 12.3523 38.5717C12.7311 38.8653 13.0199 39.2914 13.2188 39.8501C13.42 40.4065 13.5206 41.0777 13.5206 41.8636C13.5206 42.6544 13.4212 43.3291 13.2223 43.8878C13.0234 44.4441 12.7358 44.8691 12.3594 45.1626C11.983 45.4538 11.5272 45.5994 10.9922 45.5994ZM10.9922 44.8182C11.5225 44.8182 11.9344 44.5625 12.228 44.0511C12.5215 43.5398 12.6683 42.8106 12.6683 41.8636C12.6683 41.2339 12.6009 40.6977 12.4659 40.255C12.3333 39.8123 12.1416 39.4749 11.8906 39.2429C11.642 39.0109 11.3426 38.8949 10.9922 38.8949C10.4666 38.8949 10.0559 39.1541 9.75994 39.6726C9.46402 40.1887 9.31605 40.919 9.31605 41.8636C9.31605 42.4934 9.38234 43.0284 9.51491 43.4688C9.64749 43.9091 9.83807 44.2441 10.0866 44.4737C10.3376 44.7034 10.6394 44.8182 10.9922 44.8182Z" fill="white" fill-opacity="0.8"/>
<path d="M2.25284 75V74.3608L4.65341 71.733C4.93513 71.4252 5.16714 71.1577 5.34943 70.9304C5.53172 70.7008 5.66667 70.4853 5.75426 70.2841C5.84422 70.0805 5.8892 69.8674 5.8892 69.6449C5.8892 69.3892 5.82765 69.1679 5.70455 68.9808C5.58381 68.7938 5.41809 68.6494 5.20739 68.5476C4.99669 68.4458 4.75994 68.3949 4.49716 68.3949C4.2178 68.3949 3.97396 68.4529 3.76562 68.5689C3.55966 68.6825 3.39986 68.8423 3.28622 69.0483C3.17495 69.2543 3.11932 69.4957 3.11932 69.7727H2.28125C2.28125 69.3466 2.3795 68.9725 2.57599 68.6506C2.77249 68.3286 3.04001 68.0777 3.37855 67.8977C3.71946 67.7178 4.1018 67.6278 4.52557 67.6278C4.9517 67.6278 5.32931 67.7178 5.65838 67.8977C5.98745 68.0777 6.2455 68.3203 6.43253 68.6257C6.61955 68.9311 6.71307 69.2708 6.71307 69.6449C6.71307 69.9124 6.66454 70.174 6.56747 70.4297C6.47277 70.683 6.30705 70.9659 6.07031 71.2784C5.83594 71.5885 5.51042 71.9673 5.09375 72.4148L3.46023 74.1619V74.2188H6.84091V75H2.25284ZM10.6797 75.0994C10.1446 75.0994 9.68892 74.9538 9.3125 74.6626C8.93608 74.3691 8.64844 73.9441 8.44957 73.3878C8.25071 72.8291 8.15128 72.1544 8.15128 71.3636C8.15128 70.5777 8.25071 69.9065 8.44957 69.3501C8.6508 68.7914 8.93963 68.3653 9.31605 68.0717C9.69484 67.7758 10.1494 67.6278 10.6797 67.6278C11.21 67.6278 11.6634 67.7758 12.0398 68.0717C12.4186 68.3653 12.7074 68.7914 12.9062 69.3501C13.1075 69.9065 13.2081 70.5777 13.2081 71.3636C13.2081 72.1544 13.1087 72.8291 12.9098 73.3878C12.7109 73.9441 12.4233 74.3691 12.0469 74.6626C11.6705 74.9538 11.2147 75.0994 10.6797 75.0994ZM10.6797 74.3182C11.21 74.3182 11.6219 74.0625 11.9155 73.5511C12.209 73.0398 12.3558 72.3106 12.3558 71.3636C12.3558 70.7339 12.2884 70.1977 12.1534 69.755C12.0208 69.3123 11.8291 68.9749 11.5781 68.7429C11.3295 68.5109 11.0301 68.3949 10.6797 68.3949C10.1541 68.3949 9.74337 68.6541 9.44744 69.1726C9.15152 69.6887 9.00355 70.419 9.00355 71.3636C9.00355 71.9934 9.06984 72.5284 9.20241 72.9688C9.33499 73.4091 9.52557 73.7441 9.77415 73.9737C10.0251 74.2034 10.3269 74.3182 10.6797 74.3182Z" fill="white" fill-opacity="0.8"/>
<path d="M5.80966 97.2273V104.5H4.92898V98.1506H4.88636L3.1108 99.3295V98.4347L4.92898 97.2273H5.80966ZM10.2734 104.599C9.7384 104.599 9.28267 104.454 8.90625 104.163C8.52983 103.869 8.24219 103.444 8.04332 102.888C7.84446 102.329 7.74503 101.654 7.74503 100.864C7.74503 100.078 7.84446 99.4065 8.04332 98.8501C8.24455 98.2914 8.53338 97.8653 8.9098 97.5717C9.28859 97.2758 9.74313 97.1278 10.2734 97.1278C10.8037 97.1278 11.2571 97.2758 11.6335 97.5717C12.0123 97.8653 12.3011 98.2914 12.5 98.8501C12.7012 99.4065 12.8018 100.078 12.8018 100.864C12.8018 101.654 12.7024 102.329 12.5036 102.888C12.3047 103.444 12.017 103.869 11.6406 104.163C11.2642 104.454 10.8085 104.599 10.2734 104.599ZM10.2734 103.818C10.8037 103.818 11.2157 103.562 11.5092 103.051C11.8028 102.54 11.9496 101.811 11.9496 100.864C11.9496 100.234 11.8821 99.6977 11.7472 99.255C11.6146 98.8123 11.4228 98.4749 11.1719 98.2429C10.9233 98.0109 10.6238 97.8949 10.2734 97.8949C9.74787 97.8949 9.33712 98.1541 9.04119 98.6726C8.74527 99.1887 8.5973 99.919 8.5973 100.864C8.5973 101.493 8.66359 102.028 8.79616 102.469C8.92874 102.909 9.11932 103.244 9.3679 103.474C9.61884 103.703 9.92069 103.818 10.2734 103.818Z" fill="white" fill-opacity="0.8"/>
<path d="M7.625 134.099C7.08996 134.099 6.63423 133.954 6.25781 133.663C5.88139 133.369 5.59375 132.944 5.39489 132.388C5.19602 131.829 5.09659 131.154 5.09659 130.364C5.09659 129.578 5.19602 128.906 5.39489 128.35C5.59612 127.791 5.88494 127.365 6.26136 127.072C6.64015 126.776 7.0947 126.628 7.625 126.628C8.1553 126.628 8.60866 126.776 8.98509 127.072C9.36387 127.365 9.6527 127.791 9.85156 128.35C10.0528 128.906 10.1534 129.578 10.1534 130.364C10.1534 131.154 10.054 131.829 9.85511 132.388C9.65625 132.944 9.36861 133.369 8.99219 133.663C8.61577 133.954 8.16004 134.099 7.625 134.099ZM7.625 133.318C8.1553 133.318 8.56723 133.062 8.8608 132.551C9.15436 132.04 9.30114 131.311 9.30114 130.364C9.30114 129.734 9.23366 129.198 9.09872 128.755C8.96615 128.312 8.77438 127.975 8.52344 127.743C8.27486 127.511 7.97538 127.395 7.625 127.395C7.09943 127.395 6.68868 127.654 6.39276 128.173C6.09683 128.689 5.94886 129.419 5.94886 130.364C5.94886 130.993 6.01515 131.528 6.14773 131.969C6.2803 132.409 6.47088 132.744 6.71946 132.974C6.97041 133.203 7.27225 133.318 7.625 133.318Z" fill="white" fill-opacity="0.8"/>
<line x1="17" y1="11.5" x2="275" y2="11.5" stroke="#D9D9FF" stroke-opacity="0.25" stroke-dasharray="2"/>
<line x1="17" y1="41" x2="275" y2="41" stroke="#D9D9FF" stroke-opacity="0.25" stroke-dasharray="2"/>
<line x1="17" y1="70.5" x2="275" y2="70.5" stroke="#D9D9FF" stroke-opacity="0.25" stroke-dasharray="2"/>
<line x1="17" y1="100" x2="275" y2="100" stroke="#D9D9FF" stroke-opacity="0.25" stroke-dasharray="2"/>
<line x1="17" y1="129.5" x2="275" y2="129.5" stroke="#D9D9FF" stroke-opacity="0.5"/>
<line x1="16.5" y1="130" x2="16.5" y2="12" stroke="#D9D9FF" stroke-opacity="0.25" stroke-dasharray="2"/>
<line x1="38" y1="130" x2="38" y2="12" stroke="#D9D9FF" stroke-opacity="0.25" stroke-dasharray="2"/>
<line x1="59.5" y1="130" x2="59.5" y2="12" stroke="#D9D9FF" stroke-opacity="0.25" stroke-dasharray="2"/>
<line x1="81" y1="130" x2="81" y2="12" stroke="#D9D9FF" stroke-opacity="0.25" stroke-dasharray="2"/>
<line x1="102.5" y1="130" x2="102.5" y2="12" stroke="#D9D9FF" stroke-opacity="0.25" stroke-dasharray="2"/>
<line x1="124" y1="130" x2="124" y2="12" stroke="#D9D9FF" stroke-opacity="0.25" stroke-dasharray="2"/>
<line x1="145.5" y1="130" x2="145.5" y2="12" stroke="#D9D9FF" stroke-opacity="0.25" stroke-dasharray="2"/>
<line x1="167" y1="130" x2="167" y2="12" stroke="#D9D9FF" stroke-opacity="0.25" stroke-dasharray="2"/>
<line x1="188.5" y1="130" x2="188.5" y2="12" stroke="#D9D9FF" stroke-opacity="0.25" stroke-dasharray="2"/>
<line x1="210" y1="130" x2="210" y2="12" stroke="#D9D9FF" stroke-opacity="0.25" stroke-dasharray="2"/>
<line x1="231.5" y1="130" x2="231.5" y2="12" stroke="#D9D9FF" stroke-opacity="0.25" stroke-dasharray="2"/>
<line x1="253" y1="130" x2="253" y2="12" stroke="#D9D9FF" stroke-opacity="0.25" stroke-dasharray="2"/>
<line x1="274.5" y1="130" x2="274.5" y2="12" stroke="#D9D9FF" stroke-opacity="0.25" stroke-dasharray="2"/>
<g filter="url(#filter0_ddd_170_1198)">
<path d="M26.834 60.35L48.5007 95.85L70.1673 113.6L91.834 95.85L113.501 74.55L135.167 67.45L156.834 63.9H178.501L200.167 71L221.834 92.3L243.501 110.05L265.167 127.8M265.167 127.8V127.8Z" stroke="#8979FF"/>
</g>
<circle cx="4" cy="4" r="3.5" transform="matrix(1 0 0 -1 22.834 64.3501)" fill="#8979FF" stroke="#1A1F26"/>
<circle cx="4" cy="4" r="3.5" transform="matrix(1 0 0 -1 44.5 99.8501)" fill="#8979FF" stroke="#1A1F26"/>
<circle cx="4" cy="4" r="3.5" transform="matrix(1 0 0 -1 66.166 117.6)" fill="#8979FF" stroke="#1A1F26"/>
<circle cx="4" cy="4" r="3.5" transform="matrix(1 0 0 -1 87.834 99.8501)" fill="#8979FF" stroke="#1A1F26"/>
<circle cx="4" cy="4" r="3.5" transform="matrix(1 0 0 -1 109.5 78.55)" fill="#8979FF" stroke="#1A1F26"/>
<circle cx="4" cy="4" r="3.5" transform="matrix(1 0 0 -1 131.166 71.45)" fill="#8979FF" stroke="#1A1F26"/>
<circle cx="4" cy="4" r="3.5" transform="matrix(1 0 0 -1 152.834 67.8999)" fill="#8979FF" stroke="#1A1F26"/>
<circle cx="4" cy="4" r="3.5" transform="matrix(1 0 0 -1 174.5 67.8999)" fill="#8979FF" stroke="#1A1F26"/>
<circle cx="4" cy="4" r="3.5" transform="matrix(1 0 0 -1 196.166 75)" fill="#8979FF" stroke="#1A1F26"/>
<circle cx="4" cy="4" r="3.5" transform="matrix(1 0 0 -1 217.834 96.3)" fill="#8979FF" stroke="#1A1F26"/>
<circle cx="4" cy="4" r="3.5" transform="matrix(1 0 0 -1 239.5 114.05)" fill="#8979FF" stroke="#1A1F26"/>
<circle cx="4" cy="4" r="3.5" transform="matrix(1 0 0 -1 261.166 131.8)" fill="#8979FF" stroke="#1A1F26"/>
<path d="M29.7077 136.727H30.5884V141.926C30.5884 142.39 30.5032 142.784 30.3327 143.109C30.1623 143.433 29.922 143.679 29.6119 143.847C29.3017 144.015 28.936 144.099 28.5146 144.099C28.1168 144.099 27.7629 144.027 27.4528 143.883C27.1426 143.736 26.8988 143.528 26.7212 143.258C26.5437 142.988 26.4549 142.667 26.4549 142.295H27.3214C27.3214 142.501 27.3723 142.681 27.4741 142.835C27.5782 142.987 27.7203 143.105 27.9002 143.19C28.0801 143.276 28.2849 143.318 28.5146 143.318C28.7679 143.318 28.9833 143.265 29.1609 143.158C29.3384 143.052 29.4734 142.896 29.5657 142.69C29.6604 142.481 29.7077 142.227 29.7077 141.926V136.727ZM33.8448 144.128C33.4992 144.128 33.1855 144.063 32.9038 143.933C32.622 143.8 32.3983 143.609 32.2326 143.361C32.0669 143.11 31.984 142.807 31.984 142.452C31.984 142.139 32.0456 141.886 32.1687 141.692C32.2918 141.495 32.4563 141.341 32.6623 141.23C32.8683 141.119 33.0955 141.036 33.3441 140.982C33.5951 140.925 33.8472 140.88 34.1005 140.847C34.4319 140.804 34.7006 140.772 34.9066 140.751C35.1149 140.727 35.2665 140.688 35.3612 140.634C35.4582 140.579 35.5067 140.484 35.5067 140.349V140.321C35.5067 139.971 35.4109 139.698 35.2191 139.504C35.0297 139.31 34.7421 139.213 34.3562 139.213C33.9561 139.213 33.6424 139.301 33.4151 139.476C33.1879 139.651 33.0281 139.838 32.9357 140.037L32.1403 139.753C32.2823 139.421 32.4717 139.163 32.7085 138.979C32.9476 138.792 33.208 138.661 33.4897 138.588C33.7738 138.512 34.0531 138.474 34.3278 138.474C34.503 138.474 34.7042 138.496 34.9315 138.538C35.1611 138.579 35.3825 138.663 35.5955 138.79C35.811 138.918 35.9897 139.111 36.1317 139.369C36.2738 139.627 36.3448 139.973 36.3448 140.406V144H35.5067V143.261H35.4641C35.4073 143.38 35.3126 143.506 35.18 143.641C35.0475 143.776 34.8711 143.891 34.6509 143.986C34.4308 144.08 34.1621 144.128 33.8448 144.128ZM33.9727 143.375C34.3041 143.375 34.5835 143.31 34.8107 143.18C35.0404 143.049 35.2132 142.881 35.3292 142.675C35.4476 142.469 35.5067 142.253 35.5067 142.026V141.259C35.4712 141.301 35.3931 141.34 35.2724 141.376C35.154 141.409 35.0167 141.438 34.8604 141.464C34.7066 141.488 34.5562 141.509 34.4094 141.528C34.265 141.545 34.1478 141.559 34.0579 141.571C33.8401 141.599 33.6365 141.646 33.4471 141.71C33.2601 141.771 33.1085 141.865 32.9925 141.99C32.8789 142.113 32.8221 142.281 32.8221 142.494C32.8221 142.786 32.9298 143.006 33.1452 143.155C33.363 143.302 33.6388 143.375 33.9727 143.375ZM38.7125 140.719V144H37.8745V138.545H38.6841V139.398H38.7551C38.883 139.121 39.0771 138.898 39.3375 138.73C39.598 138.56 39.9341 138.474 40.3461 138.474C40.7154 138.474 41.0385 138.55 41.3155 138.702C41.5925 138.851 41.8079 139.078 41.9618 139.384C42.1157 139.687 42.1926 140.07 42.1926 140.534V144H41.3546V140.591C41.3546 140.162 41.2433 139.829 41.0208 139.589C40.7982 139.348 40.4928 139.227 40.1046 139.227C39.8371 139.227 39.598 139.285 39.3873 139.401C39.1789 139.517 39.0144 139.687 38.8936 139.909C38.7729 140.132 38.7125 140.402 38.7125 140.719Z" fill="white" fill-opacity="0.8"/>
<path d="M47.6307 144V136.727H51.9915V137.509H48.5114V139.966H51.6648V140.747H48.5114V144H47.6307ZM55.2727 144.114C54.7472 144.114 54.2938 143.998 53.9126 143.766C53.5339 143.531 53.2415 143.205 53.0355 142.786C52.8319 142.364 52.7301 141.874 52.7301 141.315C52.7301 140.757 52.8319 140.264 53.0355 139.838C53.2415 139.41 53.5279 139.076 53.8949 138.837C54.2642 138.595 54.6951 138.474 55.1875 138.474C55.4716 138.474 55.7521 138.522 56.0291 138.616C56.3061 138.711 56.5582 138.865 56.7855 139.078C57.0128 139.289 57.1939 139.568 57.3288 139.916C57.4638 140.264 57.5312 140.693 57.5312 141.202V141.557H53.3267V140.832H56.679C56.679 140.525 56.6174 140.25 56.4943 140.009C56.3736 139.767 56.2008 139.576 55.9759 139.437C55.7533 139.297 55.4905 139.227 55.1875 139.227C54.8537 139.227 54.5649 139.31 54.321 139.476C54.0795 139.639 53.8937 139.852 53.7635 140.115C53.6333 140.378 53.5682 140.66 53.5682 140.96V141.443C53.5682 141.855 53.6392 142.204 53.7812 142.491C53.9257 142.775 54.1257 142.991 54.3814 143.141C54.6371 143.287 54.9342 143.361 55.2727 143.361C55.4929 143.361 55.6918 143.33 55.8693 143.268C56.0492 143.205 56.2043 143.11 56.3345 142.984C56.4647 142.857 56.5653 142.698 56.6364 142.509L57.446 142.736C57.3608 143.01 57.2176 143.252 57.0163 143.46C56.8151 143.666 56.5665 143.827 56.2706 143.943C55.9747 144.057 55.642 144.114 55.2727 144.114ZM58.9197 144V136.727H59.7578V139.412H59.8288C59.8904 139.317 59.9756 139.196 60.0845 139.05C60.1958 138.901 60.3544 138.768 60.5604 138.652C60.7687 138.534 61.0504 138.474 61.4055 138.474C61.8648 138.474 62.2696 138.589 62.62 138.819C62.9704 139.049 63.2438 139.374 63.4403 139.795C63.6368 140.217 63.7351 140.714 63.7351 141.287C63.7351 141.865 63.6368 142.365 63.4403 142.789C63.2438 143.21 62.9716 143.537 62.6236 143.769C62.2756 143.999 61.8743 144.114 61.4197 144.114C61.0694 144.114 60.7888 144.056 60.5781 143.94C60.3674 143.821 60.2053 143.687 60.0916 143.538C59.978 143.387 59.8904 143.261 59.8288 143.162H59.7294V144H58.9197ZM59.7436 141.273C59.7436 141.685 59.804 142.048 59.9247 142.363C60.0455 142.675 60.2218 142.92 60.4538 143.098C60.6858 143.273 60.9699 143.361 61.3061 143.361C61.6565 143.361 61.9489 143.268 62.1832 143.084C62.42 142.897 62.5975 142.646 62.7159 142.331C62.8366 142.014 62.897 141.661 62.897 141.273C62.897 140.889 62.8378 140.544 62.7195 140.236C62.6035 139.926 62.4271 139.681 62.1903 139.501C61.956 139.318 61.6612 139.227 61.3061 139.227C60.9652 139.227 60.6787 139.314 60.4467 139.487C60.2147 139.657 60.0395 139.896 59.9212 140.204C59.8028 140.509 59.7436 140.866 59.7436 141.273Z" fill="white" fill-opacity="0.8"/>
<path d="M68.2547 136.727H69.3058L71.7774 142.764H71.8627L74.3343 136.727H75.3854V144H74.5615V138.474H74.4905L72.2178 144H71.4223L69.1496 138.474H69.0786V144H68.2547V136.727ZM78.6427 144.128C78.297 144.128 77.9833 144.063 77.7016 143.933C77.4199 143.8 77.1962 143.609 77.0305 143.361C76.8647 143.11 76.7819 142.807 76.7819 142.452C76.7819 142.139 76.8434 141.886 76.9665 141.692C77.0896 141.495 77.2542 141.341 77.4601 141.23C77.6661 141.119 77.8934 141.036 78.142 140.982C78.3929 140.925 78.645 140.88 78.8983 140.847C79.2298 140.804 79.4985 140.772 79.7045 140.751C79.9128 140.727 80.0643 140.688 80.159 140.634C80.2561 140.579 80.3046 140.484 80.3046 140.349V140.321C80.3046 139.971 80.2087 139.698 80.017 139.504C79.8276 139.31 79.5399 139.213 79.154 139.213C78.7539 139.213 78.4403 139.301 78.213 139.476C77.9857 139.651 77.8259 139.838 77.7336 140.037L76.9381 139.753C77.0802 139.421 77.2696 139.163 77.5063 138.979C77.7454 138.792 78.0058 138.661 78.2876 138.588C78.5716 138.512 78.851 138.474 79.1256 138.474C79.3008 138.474 79.502 138.496 79.7293 138.538C79.959 138.579 80.1803 138.663 80.3934 138.79C80.6088 138.918 80.7876 139.111 80.9296 139.369C81.0716 139.627 81.1427 139.973 81.1427 140.406V144H80.3046V143.261H80.262C80.2052 143.38 80.1105 143.506 79.9779 143.641C79.8453 143.776 79.6689 143.891 79.4488 143.986C79.2286 144.08 78.9599 144.128 78.6427 144.128ZM78.7705 143.375C79.1019 143.375 79.3813 143.31 79.6086 143.18C79.8382 143.049 80.011 142.881 80.127 142.675C80.2454 142.469 80.3046 142.253 80.3046 142.026V141.259C80.2691 141.301 80.191 141.34 80.0702 141.376C79.9519 141.409 79.8145 141.438 79.6583 141.464C79.5044 141.488 79.3541 141.509 79.2073 141.528C79.0629 141.545 78.9457 141.559 78.8557 141.571C78.6379 141.599 78.4343 141.646 78.2449 141.71C78.0579 141.771 77.9064 141.865 77.7904 141.99C77.6768 142.113 77.6199 142.281 77.6199 142.494C77.6199 142.786 77.7277 143.006 77.9431 143.155C78.1609 143.302 78.4367 143.375 78.7705 143.375ZM82.6723 144V138.545H83.482V139.369H83.5388C83.6382 139.099 83.8182 138.88 84.0786 138.712C84.339 138.544 84.6325 138.46 84.9593 138.46C85.0208 138.46 85.0977 138.461 85.1901 138.464C85.2824 138.466 85.3522 138.47 85.3996 138.474V139.327C85.3712 139.32 85.3061 139.309 85.2043 139.295C85.1048 139.278 84.9995 139.27 84.8882 139.27C84.6231 139.27 84.3863 139.326 84.178 139.437C83.972 139.546 83.8087 139.697 83.6879 139.891C83.5696 140.083 83.5104 140.302 83.5104 140.548V144H82.6723Z" fill="white" fill-opacity="0.8"/>
<path d="M90.3928 144H89.4695L92.14 136.727H93.0491L95.7195 144H94.7963L92.623 137.878H92.5661L90.3928 144ZM90.7338 141.159H94.4553V141.94H90.7338V141.159ZM96.7387 146.045V138.545H97.5484V139.412H97.6478C97.7094 139.317 97.7946 139.196 97.9035 139.05C98.0148 138.901 98.1734 138.768 98.3794 138.652C98.5877 138.534 98.8694 138.474 99.2245 138.474C99.6838 138.474 100.089 138.589 100.439 138.819C100.789 139.049 101.063 139.374 101.259 139.795C101.456 140.217 101.554 140.714 101.554 141.287C101.554 141.865 101.456 142.365 101.259 142.789C101.063 143.21 100.791 143.537 100.443 143.769C100.095 143.999 99.6933 144.114 99.2387 144.114C98.8883 144.114 98.6078 144.056 98.3971 143.94C98.1864 143.821 98.0242 143.687 97.9106 143.538C97.797 143.387 97.7094 143.261 97.6478 143.162H97.5768V146.045H96.7387ZM97.5626 141.273C97.5626 141.685 97.623 142.048 97.7437 142.363C97.8644 142.675 98.0408 142.92 98.2728 143.098C98.5048 143.273 98.7889 143.361 99.1251 143.361C99.4755 143.361 99.7678 143.268 100.002 143.084C100.239 142.897 100.417 142.646 100.535 142.331C100.656 142.014 100.716 141.661 100.716 141.273C100.716 140.889 100.657 140.544 100.538 140.236C100.422 139.926 100.246 139.681 100.009 139.501C99.7749 139.318 99.4802 139.227 99.1251 139.227C98.7842 139.227 98.4977 139.314 98.2657 139.487C98.0337 139.657 97.8585 139.896 97.7401 140.204C97.6218 140.509 97.5626 140.866 97.5626 141.273ZM102.832 144V138.545H103.642V139.369H103.699C103.798 139.099 103.978 138.88 104.239 138.712C104.499 138.544 104.793 138.46 105.119 138.46C105.181 138.46 105.258 138.461 105.35 138.464C105.443 138.466 105.512 138.47 105.56 138.474V139.327C105.531 139.32 105.466 139.309 105.364 139.295C105.265 139.278 105.16 139.27 105.048 139.27C104.783 139.27 104.546 139.326 104.338 139.437C104.132 139.546 103.969 139.697 103.848 139.891C103.73 140.083 103.671 140.302 103.671 140.548V144H102.832Z" fill="white" fill-opacity="0.8"/>
<path d="M109.43 136.727H110.481L112.952 142.764H113.037L115.509 136.727H116.56V144H115.736V138.474H115.665L113.393 144H112.597L110.324 138.474H110.253V144H109.43V136.727ZM119.817 144.128C119.472 144.128 119.158 144.063 118.876 143.933C118.595 143.8 118.371 143.609 118.205 143.361C118.04 143.11 117.957 142.807 117.957 142.452C117.957 142.139 118.018 141.886 118.141 141.692C118.264 141.495 118.429 141.341 118.635 141.23C118.841 141.119 119.068 141.036 119.317 140.982C119.568 140.925 119.82 140.88 120.073 140.847C120.405 140.804 120.673 140.772 120.879 140.751C121.088 140.727 121.239 140.688 121.334 140.634C121.431 140.579 121.479 140.484 121.479 140.349V140.321C121.479 139.971 121.384 139.698 121.192 139.504C121.002 139.31 120.715 139.213 120.329 139.213C119.929 139.213 119.615 139.301 119.388 139.476C119.161 139.651 119.001 139.838 118.908 140.037L118.113 139.753C118.255 139.421 118.444 139.163 118.681 138.979C118.92 138.792 119.181 138.661 119.462 138.588C119.746 138.512 120.026 138.474 120.3 138.474C120.476 138.474 120.677 138.496 120.904 138.538C121.134 138.579 121.355 138.663 121.568 138.79C121.784 138.918 121.962 139.111 122.104 139.369C122.246 139.627 122.317 139.973 122.317 140.406V144H121.479V143.261H121.437C121.38 143.38 121.285 143.506 121.153 143.641C121.02 143.776 120.844 143.891 120.624 143.986C120.403 144.08 120.135 144.128 119.817 144.128ZM119.945 143.375C120.277 143.375 120.556 143.31 120.783 143.18C121.013 143.049 121.186 142.881 121.302 142.675C121.42 142.469 121.479 142.253 121.479 142.026V141.259C121.444 141.301 121.366 141.34 121.245 141.376C121.127 141.409 120.989 141.438 120.833 141.464C120.679 141.488 120.529 141.509 120.382 141.528C120.238 141.545 120.121 141.559 120.031 141.571C119.813 141.599 119.609 141.646 119.42 141.71C119.233 141.771 119.081 141.865 118.965 141.99C118.852 142.113 118.795 142.281 118.795 142.494C118.795 142.786 118.902 143.006 119.118 143.155C119.336 143.302 119.612 143.375 119.945 143.375ZM124.192 146.045C124.05 146.045 123.923 146.034 123.812 146.01C123.7 145.989 123.623 145.967 123.581 145.946L123.794 145.207C123.997 145.259 124.177 145.278 124.334 145.264C124.49 145.25 124.628 145.18 124.749 145.055C124.872 144.932 124.985 144.732 125.086 144.455L125.243 144.028L123.226 138.545H124.135L125.64 142.892H125.697L127.203 138.545H128.112L125.797 144.795C125.693 145.077 125.564 145.31 125.41 145.495C125.256 145.682 125.077 145.821 124.873 145.911C124.672 146 124.445 146.045 124.192 146.045Z" fill="white" fill-opacity="0.8"/>
<path d="M134.62 136.727H135.501V141.926C135.501 142.39 135.415 142.784 135.245 143.109C135.074 143.433 134.834 143.679 134.524 143.847C134.214 144.015 133.848 144.099 133.427 144.099C133.029 144.099 132.675 144.027 132.365 143.883C132.055 143.736 131.811 143.528 131.633 143.258C131.456 142.988 131.367 142.667 131.367 142.295H132.233C132.233 142.501 132.284 142.681 132.386 142.835C132.49 142.987 132.632 143.105 132.812 143.19C132.992 143.276 133.197 143.318 133.427 143.318C133.68 143.318 133.895 143.265 134.073 143.158C134.251 143.052 134.385 142.896 134.478 142.69C134.573 142.481 134.62 142.227 134.62 141.926V136.727ZM140.589 141.77V138.545H141.427V144H140.589V143.077H140.532C140.405 143.354 140.206 143.589 139.936 143.783C139.666 143.975 139.325 144.071 138.913 144.071C138.572 144.071 138.269 143.996 138.004 143.847C137.739 143.696 137.531 143.469 137.379 143.165C137.228 142.86 137.152 142.475 137.152 142.011V138.545H137.99V141.955C137.99 142.352 138.101 142.67 138.324 142.906C138.549 143.143 138.835 143.261 139.183 143.261C139.391 143.261 139.603 143.208 139.819 143.102C140.037 142.995 140.219 142.832 140.366 142.612C140.515 142.391 140.589 142.111 140.589 141.77ZM143.8 140.719V144H142.962V138.545H143.772V139.398H143.843C143.971 139.121 144.165 138.898 144.425 138.73C144.686 138.56 145.022 138.474 145.434 138.474C145.803 138.474 146.126 138.55 146.403 138.702C146.68 138.851 146.896 139.078 147.05 139.384C147.204 139.687 147.281 140.07 147.281 140.534V144H146.442V140.591C146.442 140.162 146.331 139.829 146.109 139.589C145.886 139.348 145.581 139.227 145.192 139.227C144.925 139.227 144.686 139.285 144.475 139.401C144.267 139.517 144.102 139.687 143.982 139.909C143.861 140.132 143.8 140.402 143.8 140.719Z" fill="white" fill-opacity="0.8"/>
<path d="M157.358 136.727H158.239V141.926C158.239 142.39 158.154 142.784 157.983 143.109C157.813 143.433 157.572 143.679 157.262 143.847C156.952 144.015 156.586 144.099 156.165 144.099C155.767 144.099 155.413 144.027 155.103 143.883C154.793 143.736 154.549 143.528 154.372 143.258C154.194 142.988 154.105 142.667 154.105 142.295H154.972C154.972 142.501 155.023 142.681 155.124 142.835C155.229 142.987 155.371 143.105 155.551 143.19C155.731 143.276 155.935 143.318 156.165 143.318C156.418 143.318 156.634 143.265 156.811 143.158C156.989 143.052 157.124 142.896 157.216 142.69C157.311 142.481 157.358 142.227 157.358 141.926V136.727ZM163.328 141.77V138.545H164.166V144H163.328V143.077H163.271C163.143 143.354 162.944 143.589 162.674 143.783C162.404 143.975 162.063 144.071 161.651 144.071C161.311 144.071 161.008 143.996 160.742 143.847C160.477 143.696 160.269 143.469 160.117 143.165C159.966 142.86 159.89 142.475 159.89 142.011V138.545H160.728V141.955C160.728 142.352 160.839 142.67 161.062 142.906C161.287 143.143 161.573 143.261 161.921 143.261C162.13 143.261 162.342 143.208 162.557 143.102C162.775 142.995 162.957 142.832 163.104 142.612C163.253 142.391 163.328 142.111 163.328 141.77ZM166.539 136.727V144H165.701V136.727H166.539Z" fill="white" fill-opacity="0.8"/>
<path d="M173.348 144H172.425L175.095 136.727H176.004L178.675 144H177.751L175.578 137.878H175.521L173.348 144ZM173.689 141.159H177.41V141.94H173.689V141.159ZM183.131 141.77V138.545H183.969V144H183.131V143.077H183.074C182.947 143.354 182.748 143.589 182.478 143.783C182.208 143.975 181.867 144.071 181.455 144.071C181.114 144.071 180.811 143.996 180.546 143.847C180.281 143.696 180.073 143.469 179.921 143.165C179.77 142.86 179.694 142.475 179.694 142.011V138.545H180.532V141.955C180.532 142.352 180.643 142.67 180.866 142.906C181.091 143.143 181.377 143.261 181.725 143.261C181.933 143.261 182.145 143.208 182.361 143.102C182.579 142.995 182.761 142.832 182.908 142.612C183.057 142.391 183.131 142.111 183.131 141.77ZM187.706 146.159C187.301 146.159 186.953 146.107 186.662 146.003C186.371 145.901 186.128 145.766 185.934 145.598C185.742 145.432 185.59 145.255 185.476 145.065L186.144 144.597C186.219 144.696 186.315 144.81 186.431 144.938C186.547 145.068 186.706 145.18 186.907 145.275C187.111 145.372 187.377 145.42 187.706 145.42C188.146 145.42 188.51 145.314 188.796 145.101C189.083 144.888 189.226 144.554 189.226 144.099V142.991H189.155C189.093 143.091 189.006 143.214 188.892 143.361C188.781 143.505 188.62 143.634 188.409 143.748C188.201 143.859 187.919 143.915 187.564 143.915C187.124 143.915 186.728 143.811 186.378 143.602C186.03 143.394 185.754 143.091 185.551 142.693C185.349 142.295 185.249 141.812 185.249 141.244C185.249 140.686 185.347 140.199 185.543 139.785C185.74 139.368 186.013 139.046 186.364 138.819C186.714 138.589 187.119 138.474 187.578 138.474C187.933 138.474 188.215 138.534 188.423 138.652C188.634 138.768 188.795 138.901 188.906 139.05C189.02 139.196 189.108 139.317 189.169 139.412H189.254V138.545H190.064V144.156C190.064 144.625 189.957 145.006 189.744 145.3C189.534 145.596 189.25 145.812 188.892 145.95C188.537 146.089 188.142 146.159 187.706 146.159ZM187.678 143.162C188.014 143.162 188.298 143.085 188.53 142.931C188.762 142.777 188.938 142.556 189.059 142.267C189.18 141.978 189.24 141.633 189.24 141.23C189.24 140.837 189.181 140.49 189.063 140.19C188.944 139.889 188.769 139.653 188.537 139.483C188.305 139.312 188.019 139.227 187.678 139.227C187.323 139.227 187.027 139.317 186.79 139.497C186.555 139.677 186.379 139.919 186.261 140.222C186.145 140.525 186.087 140.861 186.087 141.23C186.087 141.609 186.146 141.944 186.264 142.235C186.385 142.524 186.563 142.751 186.797 142.917C187.034 143.08 187.327 143.162 187.678 143.162Z" fill="white" fill-opacity="0.8"/>
<path d="M198.212 138.545C198.17 138.186 197.997 137.906 197.694 137.707C197.391 137.509 197.019 137.409 196.579 137.409C196.257 137.409 195.975 137.461 195.734 137.565C195.495 137.67 195.308 137.813 195.173 137.995C195.04 138.177 194.974 138.384 194.974 138.616C194.974 138.811 195.02 138.978 195.112 139.117C195.207 139.254 195.328 139.369 195.475 139.462C195.621 139.552 195.775 139.626 195.936 139.685C196.097 139.742 196.245 139.788 196.38 139.824L197.119 140.023C197.308 140.072 197.519 140.141 197.751 140.229C197.985 140.316 198.209 140.436 198.422 140.587C198.637 140.737 198.815 140.928 198.955 141.163C199.094 141.397 199.164 141.685 199.164 142.026C199.164 142.419 199.061 142.774 198.855 143.091C198.652 143.408 198.353 143.66 197.96 143.847C197.57 144.034 197.095 144.128 196.536 144.128C196.015 144.128 195.564 144.044 195.183 143.876C194.805 143.708 194.506 143.473 194.288 143.173C194.073 142.872 193.951 142.523 193.923 142.125H194.832C194.855 142.4 194.948 142.627 195.109 142.807C195.272 142.984 195.478 143.117 195.727 143.205C195.978 143.29 196.247 143.332 196.536 143.332C196.872 143.332 197.174 143.278 197.442 143.169C197.709 143.058 197.921 142.904 198.078 142.707C198.234 142.509 198.312 142.277 198.312 142.011C198.312 141.77 198.244 141.573 198.109 141.422C197.975 141.27 197.797 141.147 197.577 141.053C197.357 140.958 197.119 140.875 196.863 140.804L195.968 140.548C195.4 140.385 194.95 140.152 194.619 139.849C194.287 139.546 194.122 139.149 194.122 138.659C194.122 138.252 194.232 137.897 194.452 137.594C194.674 137.288 194.973 137.052 195.347 136.884C195.723 136.713 196.143 136.628 196.607 136.628C197.076 136.628 197.493 136.712 197.857 136.88C198.222 137.046 198.511 137.273 198.724 137.562C198.939 137.851 199.053 138.179 199.065 138.545H198.212ZM202.785 144.114C202.26 144.114 201.806 143.998 201.425 143.766C201.047 143.531 200.754 143.205 200.548 142.786C200.345 142.364 200.243 141.874 200.243 141.315C200.243 140.757 200.345 140.264 200.548 139.838C200.754 139.41 201.041 139.076 201.408 138.837C201.777 138.595 202.208 138.474 202.7 138.474C202.984 138.474 203.265 138.522 203.542 138.616C203.819 138.711 204.071 138.865 204.298 139.078C204.525 139.289 204.707 139.568 204.842 139.916C204.976 140.264 205.044 140.693 205.044 141.202V141.557H200.839V140.832H204.192C204.192 140.525 204.13 140.25 204.007 140.009C203.886 139.767 203.713 139.576 203.489 139.437C203.266 139.297 203.003 139.227 202.7 139.227C202.366 139.227 202.078 139.31 201.834 139.476C201.592 139.639 201.406 139.852 201.276 140.115C201.146 140.378 201.081 140.66 201.081 140.96V141.443C201.081 141.855 201.152 142.204 201.294 142.491C201.438 142.775 201.638 142.991 201.894 143.141C202.15 143.287 202.447 143.361 202.785 143.361C203.006 143.361 203.204 143.33 203.382 143.268C203.562 143.205 203.717 143.11 203.847 142.984C203.977 142.857 204.078 142.698 204.149 142.509L204.959 142.736C204.873 143.01 204.73 143.252 204.529 143.46C204.328 143.666 204.079 143.827 203.783 143.943C203.487 144.057 203.155 144.114 202.785 144.114ZM206.319 146.045V138.545H207.128V139.412H207.228C207.289 139.317 207.375 139.196 207.484 139.05C207.595 138.901 207.753 138.768 207.959 138.652C208.168 138.534 208.449 138.474 208.805 138.474C209.264 138.474 209.669 138.589 210.019 138.819C210.369 139.049 210.643 139.374 210.839 139.795C211.036 140.217 211.134 140.714 211.134 141.287C211.134 141.865 211.036 142.365 210.839 142.789C210.643 143.21 210.371 143.537 210.023 143.769C209.675 143.999 209.273 144.114 208.819 144.114C208.468 144.114 208.188 144.056 207.977 143.94C207.766 143.821 207.604 143.687 207.491 143.538C207.377 143.387 207.289 143.261 207.228 143.162H207.157V146.045H206.319ZM207.143 141.273C207.143 141.685 207.203 142.048 207.324 142.363C207.445 142.675 207.621 142.92 207.853 143.098C208.085 143.273 208.369 143.361 208.705 143.361C209.056 143.361 209.348 143.268 209.582 143.084C209.819 142.897 209.997 142.646 210.115 142.331C210.236 142.014 210.296 141.661 210.296 141.273C210.296 140.889 210.237 140.544 210.119 140.236C210.003 139.926 209.826 139.681 209.589 139.501C209.355 139.318 209.06 139.227 208.705 139.227C208.364 139.227 208.078 139.314 207.846 139.487C207.614 139.657 207.439 139.896 207.32 140.204C207.202 140.509 207.143 140.866 207.143 141.273Z" fill="white" fill-opacity="0.8"/>
<path d="M222.099 140.364C222.099 141.131 221.961 141.794 221.684 142.352C221.407 142.911 221.027 143.342 220.544 143.645C220.061 143.948 219.509 144.099 218.889 144.099C218.269 144.099 217.717 143.948 217.234 143.645C216.751 143.342 216.371 142.911 216.094 142.352C215.817 141.794 215.679 141.131 215.679 140.364C215.679 139.597 215.817 138.934 216.094 138.375C216.371 137.816 216.751 137.385 217.234 137.082C217.717 136.779 218.269 136.628 218.889 136.628C219.509 136.628 220.061 136.779 220.544 137.082C221.027 137.385 221.407 137.816 221.684 138.375C221.961 138.934 222.099 139.597 222.099 140.364ZM221.247 140.364C221.247 139.734 221.141 139.202 220.931 138.769C220.722 138.336 220.44 138.008 220.082 137.786C219.727 137.563 219.329 137.452 218.889 137.452C218.449 137.452 218.05 137.563 217.692 137.786C217.337 138.008 217.054 138.336 216.843 138.769C216.635 139.202 216.531 139.734 216.531 140.364C216.531 140.993 216.635 141.525 216.843 141.958C217.054 142.391 217.337 142.719 217.692 142.942C218.05 143.164 218.449 143.276 218.889 143.276C219.329 143.276 219.727 143.164 220.082 142.942C220.44 142.719 220.722 142.391 220.931 141.958C221.141 141.525 221.247 140.993 221.247 140.364ZM225.682 144.114C225.171 144.114 224.73 143.993 224.361 143.751C223.992 143.51 223.708 143.177 223.509 142.754C223.31 142.33 223.211 141.846 223.211 141.301C223.211 140.747 223.312 140.258 223.516 139.835C223.722 139.408 224.008 139.076 224.375 138.837C224.745 138.595 225.176 138.474 225.668 138.474C226.051 138.474 226.397 138.545 226.705 138.688C227.013 138.83 227.265 139.028 227.461 139.284C227.658 139.54 227.78 139.838 227.827 140.179H226.989C226.925 139.93 226.783 139.71 226.563 139.518C226.345 139.324 226.051 139.227 225.682 139.227C225.355 139.227 225.069 139.312 224.823 139.483C224.579 139.651 224.388 139.889 224.251 140.197C224.116 140.502 224.049 140.861 224.049 141.273C224.049 141.694 224.115 142.061 224.248 142.374C224.382 142.686 224.572 142.929 224.816 143.102C225.062 143.274 225.351 143.361 225.682 143.361C225.9 143.361 226.098 143.323 226.275 143.247C226.453 143.171 226.603 143.062 226.726 142.92C226.849 142.778 226.937 142.608 226.989 142.409H227.827C227.78 142.731 227.663 143.021 227.475 143.279C227.291 143.535 227.046 143.738 226.74 143.89C226.437 144.039 226.085 144.114 225.682 144.114ZM231.424 138.545V139.256H228.598V138.545H231.424ZM229.422 137.239H230.26V142.438C230.26 142.674 230.294 142.852 230.363 142.97C230.434 143.086 230.524 143.164 230.632 143.205C230.744 143.242 230.861 143.261 230.984 143.261C231.076 143.261 231.152 143.257 231.211 143.247C231.27 143.235 231.318 143.226 231.353 143.219L231.524 143.972C231.467 143.993 231.388 144.014 231.286 144.036C231.184 144.059 231.055 144.071 230.899 144.071C230.662 144.071 230.43 144.02 230.203 143.918C229.978 143.817 229.791 143.661 229.642 143.453C229.495 143.245 229.422 142.982 229.422 142.665V137.239Z" fill="white" fill-opacity="0.8"/>
<path d="M241.714 136.727V144H240.862L236.899 138.29H236.828V144H235.947V136.727H236.799L240.777 142.452H240.848V136.727H241.714ZM245.579 144.114C245.086 144.114 244.654 143.996 244.282 143.762C243.913 143.528 243.624 143.2 243.416 142.778C243.21 142.357 243.107 141.865 243.107 141.301C243.107 140.733 243.21 140.237 243.416 139.813C243.624 139.389 243.913 139.06 244.282 138.826C244.654 138.592 245.086 138.474 245.579 138.474C246.071 138.474 246.502 138.592 246.871 138.826C247.243 139.06 247.532 139.389 247.738 139.813C247.946 140.237 248.05 140.733 248.05 141.301C248.05 141.865 247.946 142.357 247.738 142.778C247.532 143.2 247.243 143.528 246.871 143.762C246.502 143.996 246.071 144.114 245.579 144.114ZM245.579 143.361C245.953 143.361 246.26 143.265 246.502 143.073C246.743 142.881 246.922 142.629 247.038 142.317C247.154 142.004 247.212 141.666 247.212 141.301C247.212 140.937 247.154 140.597 247.038 140.282C246.922 139.967 246.743 139.713 246.502 139.518C246.26 139.324 245.953 139.227 245.579 139.227C245.205 139.227 244.897 139.324 244.655 139.518C244.414 139.713 244.235 139.967 244.119 140.282C244.003 140.597 243.945 140.937 243.945 141.301C243.945 141.666 244.003 142.004 244.119 142.317C244.235 142.629 244.414 142.881 244.655 143.073C244.897 143.265 245.205 143.361 245.579 143.361ZM253.594 138.545L251.577 144H250.725L248.708 138.545H249.617L251.123 142.892H251.18L252.685 138.545H253.594Z" fill="white" fill-opacity="0.8"/>
<path d="M259.328 144H257.084V136.727H259.428C260.133 136.727 260.737 136.873 261.239 137.164C261.741 137.453 262.125 137.868 262.393 138.411C262.66 138.95 262.794 139.597 262.794 140.349C262.794 141.107 262.659 141.759 262.389 142.306C262.119 142.851 261.726 143.27 261.21 143.563C260.694 143.854 260.067 144 259.328 144ZM257.964 143.219H259.271C259.873 143.219 260.371 143.103 260.766 142.871C261.162 142.639 261.456 142.308 261.651 141.88C261.845 141.451 261.942 140.941 261.942 140.349C261.942 139.762 261.846 139.257 261.654 138.833C261.462 138.407 261.176 138.08 260.795 137.853C260.414 137.623 259.939 137.509 259.371 137.509H257.964V143.219ZM266.445 144.114C265.919 144.114 265.466 143.998 265.085 143.766C264.706 143.531 264.413 143.205 264.207 142.786C264.004 142.364 263.902 141.874 263.902 141.315C263.902 140.757 264.004 140.264 264.207 139.838C264.413 139.41 264.7 139.076 265.067 138.837C265.436 138.595 265.867 138.474 266.359 138.474C266.643 138.474 266.924 138.522 267.201 138.616C267.478 138.711 267.73 138.865 267.957 139.078C268.185 139.289 268.366 139.568 268.501 139.916C268.636 140.264 268.703 140.693 268.703 141.202V141.557H264.499V140.832H267.851C267.851 140.525 267.789 140.25 267.666 140.009C267.545 139.767 267.373 139.576 267.148 139.437C266.925 139.297 266.662 139.227 266.359 139.227C266.026 139.227 265.737 139.31 265.493 139.476C265.251 139.639 265.066 139.852 264.935 140.115C264.805 140.378 264.74 140.66 264.74 140.96V141.443C264.74 141.855 264.811 142.204 264.953 142.491C265.098 142.775 265.298 142.991 265.553 143.141C265.809 143.287 266.106 143.361 266.445 143.361C266.665 143.361 266.864 143.33 267.041 143.268C267.221 143.205 267.376 143.11 267.506 142.984C267.637 142.857 267.737 142.698 267.808 142.509L268.618 142.736C268.533 143.01 268.389 143.252 268.188 143.46C267.987 143.666 267.738 143.827 267.442 143.943C267.147 144.057 266.814 144.114 266.445 144.114ZM272.194 144.114C271.683 144.114 271.242 143.993 270.873 143.751C270.504 143.51 270.219 143.177 270.021 142.754C269.822 142.33 269.722 141.846 269.722 141.301C269.722 140.747 269.824 140.258 270.028 139.835C270.234 139.408 270.52 139.076 270.887 138.837C271.256 138.595 271.687 138.474 272.18 138.474C272.563 138.474 272.909 138.545 273.217 138.688C273.524 138.83 273.777 139.028 273.973 139.284C274.17 139.54 274.291 139.838 274.339 140.179H273.501C273.437 139.93 273.295 139.71 273.075 139.518C272.857 139.324 272.563 139.227 272.194 139.227C271.867 139.227 271.581 139.312 271.335 139.483C271.091 139.651 270.9 139.889 270.763 140.197C270.628 140.502 270.56 140.861 270.56 141.273C270.56 141.694 270.627 142.061 270.759 142.374C270.894 142.686 271.084 142.929 271.327 143.102C271.574 143.274 271.862 143.361 272.194 143.361C272.412 143.361 272.609 143.323 272.787 143.247C272.964 143.171 273.115 143.062 273.238 142.92C273.361 142.778 273.449 142.608 273.501 142.409H274.339C274.291 142.731 274.174 143.021 273.987 143.279C273.803 143.535 273.558 143.738 273.252 143.89C272.949 144.039 272.596 144.114 272.194 144.114Z" fill="white" fill-opacity="0.8"/>
<defs>
<filter id="filter0_ddd_170_1198" x="8.40625" y="51.0896" width="275.078" height="104.097" filterUnits="userSpaceOnUse" color-interpolation-filters="sRGB">
<feFlood flood-opacity="0" result="BackgroundImageFix"/>
<feColorMatrix in="SourceAlpha" type="matrix" values="0 0 0 0 0 0 0 0 0 0 0 0 0 0 0 0 0 0 127 0" result="hardAlpha"/>
<feOffset dy="3"/>
<feGaussianBlur stdDeviation="1.5"/>
<feColorMatrix type="matrix" values="0 0 0 0 0.537451 0 0 0 0 0.474902 0 0 0 0 1 0 0 0 0.4 0"/>
<feBlend mode="normal" in2="BackgroundImageFix" result="effect1_dropShadow_170_1198"/>
<feColorMatrix in="SourceAlpha" type="matrix" values="0 0 0 0 0 0 0 0 0 0 0 0 0 0 0 0 0 0 127 0" result="hardAlpha"/>
<feOffset dy="6"/>
<feGaussianBlur stdDeviation="4.5"/>
<feColorMatrix type="matrix" values="0 0 0 0 0.537451 0 0 0 0 0.474902 0 0 0 0 1 0 0 0 0.4 0"/>
<feBlend mode="normal" in2="effect1_dropShadow_170_1198" result="effect2_dropShadow_170_1198"/>
<feColorMatrix in="SourceAlpha" type="matrix" values="0 0 0 0 0 0 0 0 0 0 0 0 0 0 0 0 0 0 127 0" result="hardAlpha"/>
<feOffset dy="9"/>
<feGaussianBlur stdDeviation="9"/>
<feColorMatrix type="matrix" values="0 0 0 0 0.537451 0 0 0 0 0.474902 0 0 0 0 1 0 0 0 0.4 0"/>
<feBlend mode="normal" in2="effect2_dropShadow_170_1198" result="effect3_dropShadow_170_1198"/>
<feBlend mode="normal" in="SourceGraphic" in2="effect3_dropShadow_170_1198" result="shape"/>
</filter>
</defs>
</svg>
